<svg id="Layer_1" data-name="Layer 1" xmlns="http://www.w3.org/2000/svg" viewBox="0 0 2500 2500"><defs><style>.cls-1{fill:#c8e3d4;}.cls-2{fill:#182572;}.cls-3{fill:#2f3a8f;}.cls-4{fill:#ef60ab;}.cls-5{fill:#dd4a48;}.cls-6{fill:#fe7e6d;}.cls-7{fill:#ae431e;}.cls-8{fill:#ee99c2;}.cls-9{fill:#ba3232;}.cls-10{fill:#ffb26b;}.cls-11{fill:#6da9e4;}.cls-12{fill:#ade4db;}.cls-13{fill:#fa7070;}.cls-14{fill:#ffeef7;}.cls-15{fill:#231f20;}.cls-16{fill:#c93232;}.cls-17{fill:#f23b3b;}.cls-18{fill:#ffd39a;}.cls-19{fill:#75c9b8;}.cls-20{fill:#4aaf97;}.cls-21{fill:#f7913e;}.cls-22{fill:#e5711a;}.cls-23{fill:#f78b31;}.cls-24{fill:#f8b400;}.cls-25{fill:#b04759;}.cls-26{fill:#e561a6;}.cls-27{fill:#d85d09;}.cls-28{fill:#c15308;}.cls-29{fill:#912c10;}.cls-30{fill:#e2816d;}.cls-31{fill:#ef8989;}.cls-32{fill:#e56767;}.cls-33{fill:#438cc9;}.cls-34{fill:#d69503;}</style></defs><title>Building</title><rect class="cls-1" width="2500" height="2500"/><rect class="cls-2" x="503.32" y="966.48" width="95.27" height="354.52"/><polygon class="cls-3" points="561.13 1185.61 561.13 966.48 0.15 966.48 0.15 2500 508.21 2500 561.13 2500 733.91 2500 733.91 1185.61 561.13 1185.61"/><rect class="cls-4" x="1993.47" y="991.52" width="95.27" height="334.09"/><rect class="cls-5" x="1154.73" y="966.48" width="95.27" height="354.52"/><polygon class="cls-6" points="1185.62 966.48 1185.62 1262.3 986.05 1262.3 986.05 2500 1185.62 2500 1223.61 2500 1746.6 2500 1746.6 966.48 1185.62 966.48"/><rect class="cls-7" x="356.31" y="1288.17" width="157.31" height="199.57"/><polygon class="cls-7" points="1131.2 2500 634.79 2500 634.79 970.92 1131.2 1130.45 1131.2 2500"/><polygon class="cls-8" points="2500 991.52 2500 2500 1746.6 2500 1746.6 1307.7 2082.75 1307.7 2082.75 991.52 2500 991.52"/><polygon class="cls-9" points="2500 1675.67 2500 1767.09 2302.23 1767.09 2302.23 1445.2 2356.39 1445.2 2447.7 1675.67 2500 1675.67"/><polygon class="cls-5" points="2405.79 1717.96 2302.23 1445.2 2198.68 1717.96 2104.32 1717.96 2104.32 2500 2500.15 2500 2500.15 1717.96 2405.79 1717.96"/><polygon class="cls-10" points="1308.65 2500 953.74 2500 953.74 1945.22 1308.65 2056.88 1308.65 2500"/><polygon class="cls-11" points="953.74 1607.05 438.09 1607.05 496.57 1368.42 895.26 1368.42 953.74 1607.05"/><polygon class="cls-12" points="841.68 1607.05 841.68 1432.13 550.15 1432.13 550.15 1607.05 438.09 1607.05 438.09 2500 953.74 2500 953.74 1607.05 841.68 1607.05"/><rect class="cls-8" x="0.15" y="1735.54" width="437.94" height="764.46"/><polygon class="cls-13" points="438.09 1735.54 0.15 1735.54 49.82 1575.95 388.43 1575.95 438.09 1735.54"/><rect class="cls-14" x="0.15" y="1923.2" width="437.94" height="84.22"/><rect class="cls-14" x="0.15" y="2177.15" width="437.94" height="84.22"/><rect class="cls-15" x="508.21" y="2219.26" width="53.23" height="90.37"/><rect class="cls-15" x="807.27" y="2219.26" width="53.23" height="90.37"/><rect class="cls-15" x="1185.62" y="2117.77" width="75.97" height="90.37"/><rect class="cls-15" x="1185.62" y="2264.45" width="75.97" height="90.37"/><rect class="cls-15" x="991.7" y="2045.21" width="99.12" height="145.87"/><rect class="cls-15" x="738.75" y="1676.59" width="99.12" height="117.91"/><rect class="cls-5" x="1184.03" y="1373.17" width="99.12" height="117.91"/><rect class="cls-5" x="1324.94" y="1090.74" width="114.62" height="136.34"/><rect class="cls-5" x="1525.17" y="1250" width="146.7" height="174.51"/><polygon class="cls-16" points="1671.87 1250 1671.87 1281.16 1560.86 1281.16 1560.86 1424.51 1525.17 1424.51 1525.17 1250 1671.87 1250"/><polygon class="cls-16" points="1439.56 1090.74 1439.56 1115.09 1352.83 1115.09 1352.83 1227.09 1324.94 1227.09 1324.94 1090.74 1439.56 1090.74"/><rect class="cls-15" x="553.96" y="1676.59" width="99.12" height="117.91"/><rect class="cls-15" x="485.26" y="1864.24" width="99.12" height="117.91"/><rect class="cls-15" x="634.79" y="1864.24" width="99.12" height="117.91"/><rect class="cls-15" x="784.33" y="1864.24" width="99.12" height="117.91"/><rect class="cls-15" x="485.26" y="2058.82" width="99.12" height="117.91"/><rect class="cls-15" x="634.79" y="2058.82" width="99.12" height="117.91"/><rect class="cls-15" x="784.33" y="2058.82" width="99.12" height="117.91"/><rect class="cls-15" x="2166.91" y="1800.46" width="52.84" height="204.54"/><rect class="cls-15" x="2275.82" y="1800.46" width="52.84" height="204.54"/><rect class="cls-15" x="2384.72" y="1800.46" width="52.84" height="204.54"/><path class="cls-13" d="M363.75,2289.88h4.79a50.73,50.73,0,0,1,50.73,50.73V2462a0,0,0,0,1,0,0H313a0,0,0,0,1,0,0V2340.6A50.73,50.73,0,0,1,363.75,2289.88Z"/><path class="cls-17" d="M326.33,2348a50.73,50.73,0,0,1,50.73-50.73h4.79a50.77,50.77,0,0,1,17.76,3.2,50.52,50.52,0,0,0-31.07-10.63h-4.79A50.73,50.73,0,0,0,313,2340.6V2462h13.31Z"/><rect class="cls-15" x="-3.19" y="2399.81" width="425.8" height="3" transform="translate(-420.35 74.66) rotate(-10.16)"/><rect class="cls-15" x="86.72" y="2423.09" width="3" height="76.91"/><rect class="cls-15" x="185.86" y="2405.31" width="3" height="94.69"/><rect class="cls-15" x="267.42" y="2390.69" width="3" height="90.3"/><rect class="cls-15" x="357.54" y="2374.53" width="3" height="87.45"/><rect class="cls-11" x="1308.65" y="1735.54" width="437.94" height="764.46"/><polygon class="cls-18" points="1746.6 1735.54 1308.65 1735.54 1358.32 1496.91 1696.93 1496.91 1746.6 1735.54"/><rect class="cls-19" x="538.49" y="2467.91" width="314.85" height="32.09"/><path class="cls-19" d="M691.53,2259.27h8.78a92.94,92.94,0,0,1,92.94,92.94v116a0,0,0,0,1,0,0H598.59a0,0,0,0,1,0,0v-116A92.94,92.94,0,0,1,691.53,2259.27Z"/><path class="cls-20" d="M627.23,2363a92.94,92.94,0,0,1,92.94-92.94H729a93.08,93.08,0,0,1,18,1.75,92.46,92.46,0,0,0-46.66-12.55h-8.78a92.94,92.94,0,0,0-92.94,92.94v116h28.64Z"/><rect class="cls-21" x="986.05" y="2261.37" width="110.4" height="238.63"/><polygon class="cls-22" points="1014.48 2280.15 1096.46 2280.15 1096.46 2261.37 986.05 2261.37 986.05 2500 1014.48 2500 1014.48 2280.15"/><circle class="cls-10" cx="1527.62" cy="1616.23" r="54.85"/><path class="cls-23" d="M1495.21,1621.45a54.86,54.86,0,0,1,54.85-54.86c.33,0,.65,0,1,0a54.85,54.85,0,1,0-24.39,104.43A54.84,54.84,0,0,1,1495.21,1621.45Z"/><circle class="cls-19" cx="695.92" cy="1521.1" r="48.93"/><path class="cls-20" d="M663.17,1527a48.88,48.88,0,0,1,57.41-48.17,48.92,48.92,0,1,0-33.15,90.43A48.9,48.9,0,0,1,663.17,1527Z"/><path class="cls-15" d="M1397.76,1794.21h4.07a43.08,43.08,0,0,1,43.08,43.08v91.09a0,0,0,0,1,0,0h-90.23a0,0,0,0,1,0,0v-91.09A43.08,43.08,0,0,1,1397.76,1794.21Z"/><path class="cls-15" d="M1643,2135.37h4.07a43.08,43.08,0,0,1,43.08,43.08v91.09a0,0,0,0,1,0,0H1600a0,0,0,0,1,0,0v-91.09A43.08,43.08,0,0,1,1643,2135.37Z"/><path class="cls-15" d="M1560.79,1915.06h4.07a43.08,43.08,0,0,1,43.08,43.08v91.09a0,0,0,0,1,0,0h-90.23a0,0,0,0,1,0,0v-91.09A43.08,43.08,0,0,1,1560.79,1915.06Z"/><path class="cls-15" d="M1422,2269.29h4.07a43.08,43.08,0,0,1,43.08,43.08v91.09a0,0,0,0,1,0,0H1379a0,0,0,0,1,0,0v-91.09A43.08,43.08,0,0,1,1422,2269.29Z"/><polygon class="cls-24" points="2104.32 2500 1746.6 2500 1746.6 1878.62 1925.46 1728.54 2104.32 1878.62 2104.32 2500"/><polygon class="cls-25" points="279.98 2461.98 279.98 2480.99 234.63 2480.99 234.63 2500 438.09 2500 438.09 2480.99 438.09 2461.98 279.98 2461.98"/><rect class="cls-15" x="192.71" y="1756.52" width="52.83" height="136.17"/><rect class="cls-15" x="61.08" y="1756.52" width="52.83" height="136.17"/><rect class="cls-15" x="324.34" y="1756.52" width="52.83" height="136.17"/><rect class="cls-15" x="192.71" y="2018.3" width="52.83" height="136.17"/><rect class="cls-15" x="61.08" y="2018.3" width="52.83" height="136.17"/><rect class="cls-15" x="324.34" y="2018.3" width="52.83" height="136.17"/><rect class="cls-26" x="51.08" y="2280.46" width="82.03" height="82.03" transform="translate(2413.57 2229.39) rotate(90)"/><rect class="cls-15" x="61.08" y="2290.46" width="62.03" height="62.03"/><rect class="cls-15" x="1805.42" y="1993.03" width="53.23" height="90.37"/><rect class="cls-15" x="1966.86" y="2177.79" width="53.23" height="90.37"/><rect class="cls-15" x="1813.59" y="2291.19" width="53.23" height="90.37"/><rect class="cls-15" x="1993.47" y="1936.96" width="53.23" height="90.37"/><circle class="cls-27" cx="1925.46" cy="1837.84" r="41.4"/><path class="cls-28" d="M1901,1841.78a41.4,41.4,0,0,1,41.4-41.4l.74,0a41.39,41.39,0,1,0-18.41,78.82A41.39,41.39,0,0,1,1901,1841.78Z"/><rect class="cls-7" x="88.22" y="1076.83" width="157.31" height="199.57"/><polygon class="cls-29" points="116.39 1105 245.53 1105 245.53 1076.83 88.22 1076.83 88.22 1276.39 116.39 1276.39 116.39 1105"/><polygon class="cls-29" points="384.49 1316.34 513.63 1316.34 513.63 1288.17 356.31 1288.17 356.31 1487.73 384.49 1487.73 384.49 1316.34"/><rect class="cls-30" x="693.67" y="1163.48" width="80.49" height="102.11"/><rect class="cls-30" x="842.75" y="1163.48" width="80.49" height="102.11"/><rect class="cls-30" x="1008.74" y="1163.48" width="61.14" height="324.25"/><rect class="cls-30" x="1008.74" y="1545.92" width="61.14" height="346.78"/><path class="cls-5" d="M2289.07,1109.7h0a52.42,52.42,0,0,1,52.42,52.42v52.42a0,0,0,0,1,0,0H2236.65a0,0,0,0,1,0,0v-52.42A52.42,52.42,0,0,1,2289.07,1109.7Z"/><path class="cls-5" d="M2132,1372.09h0a52.42,52.42,0,0,1,52.42,52.42v52.42a0,0,0,0,1,0,0H2079.57a0,0,0,0,1,0,0v-52.42A52.42,52.42,0,0,1,2132,1372.09Z"/><rect class="cls-5" x="1849.2" y="1476.23" width="104.84" height="199.44"/><rect class="cls-4" x="2217.07" y="1213.78" width="144" height="28.17"/><rect class="cls-4" x="2059.99" y="1476.93" width="144" height="28.17"/><path class="cls-31" d="M2302.23,2192h0a105.56,105.56,0,0,1,105.56,105.56V2500a0,0,0,0,1,0,0H2196.68a0,0,0,0,1,0,0V2297.6A105.56,105.56,0,0,1,2302.23,2192Z"/><polygon class="cls-32" points="2407.79 2500 2407.79 2314.4 2349.24 2314.4 2349.24 2350.39 2301.79 2350.39 2301.79 2385.44 2267.07 2385.44 2267.07 2428.96 2225.95 2428.96 2225.95 2473.48 2196.68 2473.48 2196.68 2500 2407.79 2500"/><rect class="cls-33" x="1354.68" y="2093.43" width="49.54" height="15.65"/><rect class="cls-33" x="1439.72" y="2175.35" width="49.54" height="15.65"/><rect class="cls-33" x="1406.33" y="2030.39" width="49.54" height="15.65"/><rect class="cls-33" x="1612.94" y="1832.13" width="49.54" height="15.65"/><rect class="cls-34" x="1807.27" y="2146.65" width="49.54" height="15.65"/><rect class="cls-34" x="1859.29" y="2222.98" width="49.54" height="15.65"/><rect class="cls-34" x="1933.24" y="2110.32" width="49.54" height="15.65"/><rect class="cls-34" x="1982.78" y="2372.86" width="49.54" height="15.65"/><rect class="cls-34" x="1826.65" y="2434.13" width="49.54" height="15.65"/></svg>